ModelForces
version=1
nRows=4
nColumns=155
inDegrees=no

This file contains the forces exerted on a model during a simulation.

A force is a generalized force, meaning that it can be either a force (N) or a torque (Nm).

Units are S.I. units (second, meters, Newtons, ...)
Angles are in degrees.

endheader
time	glut_med1_r	glut_med2_r	glut_med3_r	glut_min1_r	glut_min2_r	glut_min3_r	semimem_r	semiten_r	bifemlh_r	bifemsh_r	sar_r	add_long_r	add_brev_r	add_mag1_r	add_mag2_r	add_mag3_r	tfl_r	pect_r	grac_r	glut_max1_r	glut_max2_r	glut_max3_r	iliacus_r	psoas_r	quad_fem_r	gem_r	peri_r	rect_fem_r	vas_med_r	vas_int_r	vas_lat_r	med_gas_r	lat_gas_r	soleus_r	tib_post_r	flex_dig_r	flex_hal_r	tib_ant_r	per_brev_r	per_long_r	per_tert_r	ext_dig_r	ext_hal_r	glut_med1_l	glut_med2_l	glut_med3_l	glut_min1_l	glut_min2_l	glut_min3_l	semimem_l	semiten_l	bifemlh_l	bifemsh_l	sar_l	add_long_l	add_brev_l	add_mag1_l	add_mag2_l	add_mag3_l	tfl_l	pect_l	grac_l	glut_max1_l	glut_max2_l	glut_max3_l	iliacus_l	psoas_l	quad_fem_l	gem_l	peri_l	rect_fem_l	vas_med_l	vas_int_l	vas_lat_l	med_gas_l	lat_gas_l	soleus_l	tib_post_l	flex_dig_l	flex_hal_l	tib_ant_l	per_brev_l	per_long_l	per_tert_l	ext_dig_l	ext_hal_l	ercspn_r	ercspn_l	intobl_r	intobl_l	extobl_r	extobl_l	femur_lat_meniscii_r.femur_lat_r.force.X	femur_lat_meniscii_r.femur_lat_r.force.Y	femur_lat_meniscii_r.femur_lat_r.force.Z	femur_lat_meniscii_r.femur_lat_r.torque.X	femur_lat_meniscii_r.femur_lat_r.torque.Y	femur_lat_meniscii_r.femur_lat_r.torque.Z	femur_lat_meniscii_r.meniscus_lat_r.force.X	femur_lat_meniscii_r.meniscus_lat_r.force.Y	femur_lat_meniscii_r.meniscus_lat_r.force.Z	femur_lat_meniscii_r.meniscus_lat_r.torque.X	femur_lat_meniscii_r.meniscus_lat_r.torque.Y	femur_lat_meniscii_r.meniscus_lat_r.torque.Z	femur_med_meniscii_r.femur_med_r.force.X	femur_med_meniscii_r.femur_med_r.force.Y	femur_med_meniscii_r.femur_med_r.force.Z	femur_med_meniscii_r.femur_med_r.torque.X	femur_med_meniscii_r.femur_med_r.torque.Y	femur_med_meniscii_r.femur_med_r.torque.Z	femur_med_meniscii_r.meniscus_med_r.force.X	femur_med_meniscii_r.meniscus_med_r.force.Y	femur_med_meniscii_r.meniscus_med_r.force.Z	femur_med_meniscii_r.meniscus_med_r.torque.X	femur_med_meniscii_r.meniscus_med_r.torque.Y	femur_med_meniscii_r.meniscus_med_r.torque.Z	femur_med_tibia_r.tibia_upper_r.force.X	femur_med_tibia_r.tibia_upper_r.force.Y	femur_med_tibia_r.tibia_upper_r.force.Z	femur_med_tibia_r.tibia_upper_r.torque.X	femur_med_tibia_r.tibia_upper_r.torque.Y	femur_med_tibia_r.tibia_upper_r.torque.Z	femur_med_tibia_r.femur_med_r.force.X	femur_med_tibia_r.femur_med_r.force.Y	femur_med_tibia_r.femur_med_r.force.Z	femur_med_tibia_r.femur_med_r.torque.X	femur_med_tibia_r.femur_med_r.torque.Y	femur_med_tibia_r.femur_med_r.torque.Z	femur_lat_tibia_r.tibia_upper_r.force.X	femur_lat_tibia_r.tibia_upper_r.force.Y	femur_lat_tibia_r.tibia_upper_r.force.Z	femur_lat_tibia_r.tibia_upper_r.torque.X	femur_lat_tibia_r.tibia_upper_r.torque.Y	femur_lat_tibia_r.tibia_upper_r.torque.Z	femur_lat_tibia_r.femur_lat_r.force.X	femur_lat_tibia_r.femur_lat_r.force.Y	femur_lat_tibia_r.femur_lat_r.force.Z	femur_lat_tibia_r.femur_lat_r.torque.X	femur_lat_tibia_r.femur_lat_r.torque.Y	femur_lat_tibia_r.femur_lat_r.torque.Z	aACL_R	pACL_R	aPCL_R	pPCL_R	aMCL_R	mMCL_R	pMCL_R	aLCL_R	mLCL_R	pLCL_R	aPCL_L	pPCL_L	aMCL_L	aLCL_L
      0.11102746	     10.51825133	     11.12358295	     11.99669709	      5.07893353	      5.82531265	      6.47749205	    112.98897376	    166.84313175	    224.68237448	    360.43438778	    126.09316463	     11.10700001	      7.86292252	      0.00000000	      4.79200698	      8.34869177	      5.04196878	      3.88056753	     99.82619796	      7.19141199	     10.95007649	      8.26184103	     32.70538433	     24.41015603	      6.97155898	      4.50743453	      4.60002121	     38.21404134	      0.00000000	      0.00000000	      0.00000000	     30.12763957	      0.61223676	      0.00000000	      0.00000000	      1.22578066	      0.00000000	     28.77263472	      3.71695064	      4.40086945	      3.89961263	     17.53381059	      5.33489751	     10.51825133	     11.12358295	     11.99669709	      5.07893353	      5.82531265	      6.47749205	      0.00000000	      8.37787412	     14.87474232	     13.98762299	      2.89423461	     11.10700001	      7.86292252	      0.00000000	      4.79200698	      8.34869177	      6.76846330	      3.88056753	      3.00195207	      7.19141199	     10.95007649	      8.26184103	     32.70538433	     24.41015603	      6.97155898	      4.50743453	      4.60002121	     23.08841581	      0.00000000	      0.00000000	      0.00000000	     17.21531830	      8.78021191	     58.14390532	     57.43192866	      7.60567369	      6.98000310	     16.72137864	      9.34991807	     21.67154902	      3.76859558	     11.83771389	      3.98690365	     47.83518055	     47.83518055	     18.14473289	     18.14473289	     35.10471265	     35.10471265	     41.71722072	    250.35929237	     36.71313836	    -21.14170726	      1.06913182	     16.14248582	    -41.71722072	   -250.35929237	    -36.71313836	      7.61375462	     -1.54170335	      2.45198173	    -24.31495970	     52.60979443	      7.34513768	     -1.76838911	      0.56180100	     -9.95684281	     24.31495970	    -52.60979443	     -7.34513768	     -0.93300097	     -0.58994067	      1.21585370	   -101.84518016	   -512.46635332	    117.74036213	    -12.19016028	      2.57986670	      0.69950948	    101.84518016	    512.46635332	   -117.74036213	     58.24922251	     -1.54340396	     43.65270483	    -40.31282727	   -152.62384723	    -38.47056267	      5.16936494	     -1.46035931	      0.37734546	     40.31282727	    152.62384723	     38.47056267	    -19.56797108	      0.97208186	     16.64791383	      8.81169329	    -13.21551699	     27.22296394	     61.72871228	      0.00000000	      0.00000000	    -38.33721251	      0.00000000	      0.00000000	      0.00000000	      0.00000000	      0.00000000	      0.00000001	      0.00000000
      0.11218149	     11.04384150	     11.03995775	     11.90644103	      5.04206972	      5.78468732	      6.43508184	    112.34269459	    166.49807833	    220.93447082	    356.52473568	    126.10802105	     11.02241853	      7.80636494	      0.00000000	      4.76618130	      8.28334476	      5.03267934	      4.03200668	     99.68792434	      7.13733346	     10.86695042	      8.19833725	     32.54877768	     24.23180090	      6.93164840	      4.48170812	      4.76588501	     37.97382951	      0.00000000	      0.00000000	      0.00000000	     32.91328605	      0.60832248	      0.00000000	      0.00000000	      0.82249073	      0.00000000	     28.41322432	      4.17343458	      4.67033371	      2.88756465	     17.71888221	      5.30233263	     11.04384150	     11.03995775	     11.90644103	      5.04206972	      5.78468732	      6.43508184	      0.00000000	      8.31163679	     14.85256005	     13.88388190	      2.87332233	     11.02241853	      7.80636494	      0.00000000	      4.76618130	      8.28334476	      6.72973829	      4.03200668	      2.97989991	      7.13733346	     10.86695042	      8.19833725	     32.54877768	     24.23180090	      6.93164840	      4.48170812	      4.76588501	     22.92326917	      0.00000000	      0.00000000	      0.00000000	     17.55664081	      8.90563570	     58.13837989	     57.29978815	      7.49782859	      6.86519452	     16.67391619	      9.29914823	     21.61427931	      3.74133475	     11.91085878	      4.00020954	     47.48725878	     47.48725878	     18.00375299	     18.00375299	     34.97497469	     34.97497469	     46.75105270	    263.77853546	     34.79128582	    -20.65670791	      1.16985841	     18.15111195	    -46.75105270	   -263.77853546	    -34.79128582	      7.88030263	     -1.63727002	      2.56107294	    -22.46090339	     53.80197951	      7.89855378	     -1.96612085	      0.52062657	     -9.17706987	     22.46090339	    -53.80197951	     -7.89855378	     -0.94659855	     -0.56076866	      1.16768148	   -115.87295674	   -532.30422890	    122.85933645	    -12.69733434	      2.87424825	      0.48879653	    115.87295674	    532.30422890	   -122.85933645	     60.73474903	     -1.78409947	     49.54018993	    -42.15835969	   -150.90263773	    -37.55492231	      5.07615794	     -1.50223621	      0.33511214	     42.15835969	    150.90263773	     37.55492231	    -19.13439782	      1.01426428	     17.40713159	      8.05929193	    -13.65571291	     24.94277490	     58.10246660	      0.00000000	      0.00000000	      0.00000000	      0.00000000	      0.00000000	      0.00000000	      0.00000000	      0.00000000	      0.00000001	      0.00000000
      0.11333552	     11.47359970	     10.95761682	     11.81745244	      5.00578257	      5.74470426	      6.39254770	    111.74952098	    166.27086693	    217.23315704	    353.10129154	    126.18638805	     10.93917627	      7.75068914	      0.00000000	      4.73941802	      8.21886863	      5.01876301	      4.09400065	     99.61780245	      7.08403941	     10.78513120	      8.13583788	     32.39469856	     24.05630779	      6.88984839	      4.45637713	      4.91852304	     37.84012869	      0.00000000	      0.00000000	      0.00000000	     35.80116651	      0.61324988	      0.00000000	      0.00000000	      0.45422643	      0.00000000	     27.84425605	      4.63575719	      4.95116375	      0.19953336	     17.91290294	      5.27710327	     11.47359970	     10.95761682	     11.81745244	      5.00578257	      5.74470426	      6.39254770	      0.00000000	      8.24644759	     14.82703287	     13.78177566	      2.85273665	     10.93917627	      7.75068914	      0.00000000	      4.73941802	      8.21886863	      6.69145458	      4.09400065	      2.95819406	      7.08403941	     10.78513120	      8.13583788	     32.39469856	     24.05630779	      6.88984839	      4.45637713	      4.91852304	     22.75907243	      0.00000000	      0.00000000	      0.00000000	     17.87628930	      9.02277572	     58.12284264	     57.16558328	      7.39410539	      6.75502443	     16.62273191	      9.24779553	     21.55516205	      3.71449314	     11.96657263	      4.00570813	     47.14478307	     47.14478307	     17.86500255	     17.86500255	     34.84734683	     34.84734683	     46.51563041	    257.70756479	     35.37298021	    -20.76062627	      1.15588365	     18.04637577	    -46.51563041	   -257.70756479	    -35.37298021	      7.74019846	     -1.63465858	      2.56363014	    -19.67763718	     52.03986974	      8.53733619	     -2.27201480	      0.45241065	     -8.02402852	     19.67763718	    -52.03986974	     -8.53733619	     -0.89040004	     -0.50739328	      1.07015417	   -131.28873034	   -553.04088308	    127.64114999	    -13.19841744	      3.19369640	      0.26797694	    131.28873034	    553.04088308	   -127.64114999	     63.08832497	     -2.05235982	     55.99278542	    -43.51965158	   -149.57675040	    -37.51466403	      5.03153211	     -1.54231706	      0.31564915	     43.51965158	    149.57675040	     37.51466403	    -19.08280300	      1.04594611	     17.96392189	      8.88549625	    -12.55254076	     26.14061620	     61.70088963	      0.00000000	      0.00000000	      0.00000000	      0.00000000	      0.00000000	      0.00000000	      0.00000000	      0.00000000	      0.00000001	      0.00000000
      0.11448955	     11.82419030	     10.87654527	     11.72973454	      4.97006265	      5.70535284	      6.34996513	    111.33326122	    166.33293612	    213.89135345	    351.30583754	    126.47647920	     10.85725113	      7.69588074	      0.00000000	      4.71189939	      8.15526313	      5.01585900	      4.11130820	     99.74378719	      7.03152874	     10.70459939	      8.07432693	     32.24310409	     23.88362881	      6.84673867	      4.43143709	      5.05901867	     37.49791781	      0.00000000	      0.00000000	      0.00000000	     38.87062686	      0.66011171	      0.00000000	      0.00000000	      0.12745873	      0.00000000	     27.21011443	      5.09275648	      5.23063865	     13.32191007	     18.11485463	      5.23277197	     11.82419030	     10.87654527	     11.72973454	      4.97006265	      5.70535284	      6.34996513	      0.00000000	      8.18228927	     14.79828452	     13.68127733	      2.83247222	     10.85725113	      7.69588074	      0.00000000	      4.71189939	      8.15526313	      6.65361677	      4.11130820	      2.93682884	      7.03152874	     10.70459939	      8.07432693	     32.24310409	     23.88362881	      6.84673867	      4.43143709	      5.05901867	     22.59591974	      0.00000000	      0.00000000	      0.00000000	     18.17548523	      9.13205955	     58.09740777	     57.02946379	      7.29455078	      6.64957829	     16.56805853	      9.19593342	     21.49426759	      3.68806573	     12.00487014	      4.00397744	     46.80766420	     46.80766420	     17.72844529	     17.72844529	     34.72179283	     34.72179283	     45.10172487	    251.05950918	     33.98566778	    -20.00343531	      1.12967221	     17.45659507	    -45.10172487	   -251.05950918	    -33.98566778	      7.49113616	     -1.59599094	      2.59303377	    -18.00837911	     50.15493601	      9.28045004	     -2.62710232	      0.40935399	     -7.34481243	     18.00837911	    -50.15493601	     -9.28045004	     -0.82506720	     -0.47828656	      1.01853852	   -137.92880301	   -552.65700550	    127.62432306	    -13.18270488	      3.34158917	      0.21691548	    137.92880301	    552.65700550	   -127.62432306	     63.04962784	     -2.18230682	     58.69638824	    -42.72537916	   -142.46608157	    -36.27304809	      4.80323808	     -1.51662511	      0.30094606	     42.72537916	    142.46608157	     36.27304809	    -18.39936480	      1.02934449	     17.62753430	      8.22997777	    -12.80906945	     29.09282273	     68.42061984	      0.00000000	      0.00000000	      0.00000000	      0.00000000	      0.00000000	      0.00000000	      0.00000000	      0.00000000	      0.00000001	      0.00000000
